# xmcd CD database file
#
# Track frame offsets:
#	150
#	24859
#	43675
#	62898
#	77323
#	100117
#	132309
#	153884
#	181726
#	199384
#	222130
#	242440
#	261649
#	272592
#	291932
#	313338
#
# Disc length: 4374 seconds
#
# Revision: 1
# Processed by: cddbd v1.5.2PL0 Copyright (c) Steve Scherf et al.
# Submitted via: CDex 1.70beta2
#
DISCID=e0111410
DTITLE=Odd Børretzen - Lars Martin Myhre - Fra øverste hylle
DYEAR=2004
DGENRE=Jazz
TTITLE0=Måkene
TTITLE1=Sjømannsvals
TTITLE2=Småbåthavn
TTITLE3=Anorakkene
TTITLE4=Unnskyld at vi finns
TTITLE5=Vintersang
TTITLE6=Skuddår
TTITLE7=Kjærlighetssang
TTITLE8=Snill
TTITLE9=1942
TTITLE10=Generalen
TTITLE11=Mormor
TTITLE12=Aforismer
TTITLE13=Høstsang
TTITLE14=Noen ganger er det all right
TTITLE15=Kelner!
EXTD=YEAR: 2004
EXTT0=
EXTT1=
EXTT2=
EXTT3=
EXTT4=
EXTT5=
EXTT6=
EXTT7=
EXTT8=
EXTT9=
EXTT10=
EXTT11=
EXTT12=
EXTT13=
EXTT14=
EXTT15=
PLAYORDER=
